<svg width="76" height="24" viewBox="0 0 76 24" fill="none" xmlns="http://www.w3.org/2000/svg">
<path d="M1.0125 24C0.720833 24 0.575 23.8542 0.575 23.5625V20.2725C0.575 20.1208 0.580833 19.9983 0.5925 19.905C0.615833 19.8117 0.685833 19.7358 0.8025 19.6775L5.3875 17.5775V14.4625L0.8725 11.6625C0.674167 11.5458 0.575 11.3708 0.575 11.1375V4.715C0.575 4.52833 0.586667 4.39417 0.61 4.3125C0.633333 4.21917 0.720833 4.12 0.8725 4.015L5.475 0.899999C5.59167 0.829999 5.69667 0.777498 5.79 0.742498C5.895 0.695832 6.02333 0.672499 6.175 0.672499H10.9C11.1917 0.672499 11.3375 0.818332 11.3375 1.11V4.085C11.3375 4.34167 11.25 4.51667 11.075 4.61L6.49 6.5V9.7375L11.075 12.3625C11.25 12.4442 11.3375 12.6308 11.3375 12.9225V20.535C11.3375 20.6283 11.32 20.7275 11.285 20.8325C11.2617 20.9375 11.2033 21.0133 11.11 21.06L5.615 23.79C5.545 23.825 5.4575 23.8717 5.3525 23.93C5.25917 23.9767 5.16583 24 5.0725 24H1.0125ZM15.4486 24C15.157 24 15.0111 23.8542 15.0111 23.5625V1.11C15.0111 0.818332 15.157 0.672499 15.4486 0.672499H25.1261C25.4061 0.672499 25.6395 0.765832 25.8261 0.952499L29.3261 4.4525C29.5245 4.65083 29.6236 4.88417 29.6236 5.1525V11.19C29.6236 11.47 29.5245 11.7033 29.3261 11.89L25.8261 15.39C25.6395 15.5883 25.4061 15.6875 25.1261 15.6875H20.8386V23.5625C20.8386 23.8542 20.6928 24 20.4011 24H15.4486ZM22.1511 10.9275C23.1195 10.9275 23.7786 10.735 24.1286 10.35C24.4903 9.965 24.6711 9.23583 24.6711 8.1625C24.6711 7.08917 24.4903 6.36 24.1286 5.975C23.7786 5.59 23.1195 5.3975 22.1511 5.3975C21.1945 5.3975 20.5353 5.59 20.1736 5.975C19.8236 6.36 19.6486 7.08917 19.6486 8.1625C19.6486 9.23583 19.8236 9.965 20.1736 10.35C20.5353 10.735 21.1945 10.9275 22.1511 10.9275ZM36.9403 24C36.6719 24 36.4386 23.9008 36.2403 23.7025L32.7403 20.2025C32.5419 20.0158 32.4428 19.7825 32.4428 19.5025V5.1525C32.4428 4.88417 32.5419 4.65083 32.7403 4.4525L36.2403 0.952499C36.4386 0.765832 36.6719 0.672499 36.9403 0.672499H43.8178C44.0978 0.672499 44.3311 0.765832 44.5178 0.952499L48.0178 4.4525C48.2161 4.65083 48.3153 4.88417 48.3153 5.1525V19.5025C48.3153 19.7825 48.2161 20.0158 48.0178 20.2025L44.5178 23.7025C44.3311 23.9008 44.0978 24 43.8178 24H36.9403ZM39.0053 19.3275H41.7528C42.2428 19.3275 42.4878 19.0008 42.4878 18.3475V6.325C42.4878 5.66 42.2428 5.3275 41.7528 5.3275H39.0053C38.5269 5.3275 38.2878 5.66 38.2878 6.325V18.3475C38.2878 19.0008 38.5269 19.3275 39.0053 19.3275ZM56.4438 24C56.1521 24 56.0063 23.8542 56.0063 23.5625V5.3275H52.9438C52.6521 5.3275 52.5063 5.18167 52.5063 4.89V1.11C52.5063 0.818332 52.6521 0.672499 52.9438 0.672499H64.8963C65.1879 0.672499 65.3338 0.818332 65.3338 1.11V4.89C65.3338 5.18167 65.1879 5.3275 64.8963 5.3275H61.8338V23.5625C61.8338 23.8542 61.6879 24 61.3963 24H56.4438ZM69.2652 23.86C68.9736 23.86 68.8277 23.7025 68.8277 23.3875V17.8225C68.8277 17.5075 68.9736 17.35 69.2652 17.35H74.8652C75.1569 17.35 75.3027 17.5075 75.3027 17.8225V23.3875C75.3027 23.7025 75.1569 23.86 74.8652 23.86H69.2652Z" fill="#FEFEFE"/>
</svg>
